<svg xmlns="http://www.w3.org/2000/svg" viewBox="0 0 595 842" width="595" height="842" role="img">
<defs>
  <linearGradient id="pg" x1="0" y1="0" x2="1" y2="1">
    <stop offset="0%" stop-color="#fdfbf7"/><stop offset="100%" stop-color="#faf6ef"/>
  </linearGradient>
  <style>
    .t { font-family: "Cormorant Garamond", Georgia, serif; fill: #241f1a; }
    .s { font-family: "Inter", "Helvetica Neue", Arial, sans-serif; fill: #7d7266; }
    .g { fill: #b8912f; }
  </style>
</defs>
<rect width="595" height="842" fill="url(#pg)"/>
<rect x="34" y="34" width="527" height="774" fill="none" stroke="#b8912f" stroke-width="1" opacity=".35"/><rect x="41" y="41" width="513" height="760" fill="none" stroke="#b8912f" stroke-width=".5" opacity=".28"/>
<g opacity=".7"><line x1="241.5" y1="140" x2="285.5" y2="140" stroke="#b8912f" stroke-width="1"/><line x1="309.5" y1="140" x2="353.5" y2="140" stroke="#b8912f" stroke-width="1"/><circle cx="297.5" cy="140" r="3.2" fill="none" stroke="#b8912f" stroke-width="1"/></g>
<text x="297.5" y="210" class="t" font-size="36" text-anchor="middle" font-weight="600" letter-spacing="0" >Merci de votre visite</text>
<text x="297.5" y="260" class="s" font-size="15" text-anchor="middle" font-weight="400" letter-spacing="0" >Nous espérons vous avoir régalé.</text>
<line x1="140" y1="320" x2="455" y2="320" stroke="#b8912f" stroke-width="1" opacity=".45"/>
<text x="297.5" y="380" class="t" font-size="24" text-anchor="middle" font-weight="600" letter-spacing="0" >Votre avis nous aide</text>
<text x="297.5" y="414" class="s" font-size="13" text-anchor="middle" font-weight="400" letter-spacing="0" >Touchez l'étoile en haut de l'écran</text>
<text x="297.5" y="436" class="s" font-size="13" text-anchor="middle" font-weight="400" letter-spacing="0" >pour nous dire comment s'est passé le repas.</text>
<g transform="translate(275.5,470)"><path d="M22 2l6.2 12.6L42 16.6l-10 9.7 2.4 13.7L22 33.5 9.6 40l2.4-13.7-10-9.7 13.8-2z" fill="#b8912f" opacity=".85"/></g>
<line x1="140" y1="580" x2="455" y2="580" stroke="#b8912f" stroke-width="1" opacity=".45"/>
<text x="297.5" y="640" class="t" font-size="22" text-anchor="middle" font-weight="600" letter-spacing="0" >Le Jardin d'Olivier</text>
<text x="297.5" y="668" class="s" font-size="12" text-anchor="middle" font-weight="400" letter-spacing="0" >12 rue des Oliviers, 75011 Paris</text>
<text x="297.5" y="690" class="s" font-size="12" text-anchor="middle" font-weight="400" letter-spacing="0" >01 23 45 67 89</text>
<text x="297.5" y="730" class="s" font-size="11" text-anchor="middle" font-weight="400" letter-spacing="0" >Ouvert du mardi au samedi · 12h–14h30 / 19h–22h30</text>
<text x="297.5" y="796" class="s" font-size="12" text-anchor="middle" font-weight="400" letter-spacing="2" >6</text>
</svg>